<svg width="28" height="23" viewBox="0 0 28 23" fill="none" xmlns="http://www.w3.org/2000/svg">
<path fill-rule="evenodd" clip-rule="evenodd" d="M24.7115 20.4168L13.5657 2.41606L2.41989 20.4168L24.7115 20.4168ZM15.6199 1.14415C14.6753 -0.381382 12.4561 -0.381383 11.5115 1.14415L0.365731 19.1449C-0.630881 20.7544 0.526773 22.8328 2.41989 22.8328H24.7115C26.6046 22.8328 27.7623 20.7544 26.7657 19.1449L15.6199 1.14415Z" fill="#2F2F2F"/>
<path d="M12.8862 13.2621C13.0596 12.8902 13.5886 12.8902 13.762 13.2621L17.3975 21.0582C17.5469 21.3786 17.313 21.7456 16.9596 21.7456H9.68862C9.33515 21.7456 9.1013 21.3786 9.25069 21.0582L12.8862 13.2621Z" fill="#2F2F2F"/>
</svg>
