<svg width="28" height="29" viewBox="0 0 28 29" fill="none" xmlns="http://www.w3.org/2000/svg">
<path fill-rule="evenodd" clip-rule="evenodd" d="M2.41989 25.9727L24.7115 25.9727L17.7638 14.7519C17.7626 14.7512 17.7611 14.7504 17.7592 14.7495C17.7533 14.7466 17.7437 14.7426 17.73 14.7386C17.6688 14.7208 17.5625 14.7154 17.4436 14.7595C14.7438 15.7599 12.4143 15.7378 9.67223 14.7287C9.56584 14.6895 9.47064 14.6949 9.41554 14.7113C9.40326 14.7149 9.39463 14.7186 9.38928 14.7212C9.38769 14.722 9.38639 14.7227 9.38535 14.7233L2.41989 25.9727ZM24.7115 28.3887H2.41989C0.526773 28.3887 -0.630881 26.3103 0.365731 24.7007L7.33368 13.4474C7.99017 12.3871 9.33636 12.0306 10.5067 12.4613C12.7288 13.2791 14.4643 13.2869 16.6042 12.494C17.7865 12.0558 19.1515 12.4037 19.8153 13.4758L26.7657 24.7007C27.7623 26.3103 26.6046 28.3887 24.7115 28.3887Z" fill="#2F2F2F"/>
<path fill-rule="evenodd" clip-rule="evenodd" d="M13.5657 13.0467C16.5013 13.0467 18.881 10.667 18.881 7.73138C18.881 4.79581 16.5013 2.41606 13.5657 2.41606C10.6301 2.41606 8.25038 4.79581 8.25038 7.73138C8.25038 10.667 10.6301 13.0467 13.5657 13.0467ZM13.5657 15.4628C17.8356 15.4628 21.2971 12.0013 21.2971 7.73138C21.2971 3.46146 17.8356 0 13.5657 0C9.29578 0 5.83432 3.46146 5.83432 7.73138C5.83432 12.0013 9.29578 15.4628 13.5657 15.4628Z" fill="#2F2F2F"/>
</svg>
