<svg width="28" height="23" viewBox="0 0 28 23" fill="none" xmlns="http://www.w3.org/2000/svg">
<path fill-rule="evenodd" clip-rule="evenodd" d="M24.7102 20.4157L13.565 2.41593L2.41976 20.4157L24.7102 20.4157ZM15.6191 1.14409C14.6745 -0.381362 12.4555 -0.381363 11.5109 1.14409L0.365712 19.1439C-0.630848 20.7533 0.526745 22.8316 2.41976 22.8316H24.7102C26.6032 22.8316 27.7608 20.7533 26.7643 19.1439L15.6191 1.14409Z" fill="black"/>
<path fill-rule="evenodd" clip-rule="evenodd" d="M17.4183 13.8352C17.4183 14.149 17.3459 14.446 17.2168 14.7102C17.0864 15.1195 16.5872 15.8744 15.9023 16.6619C14.9782 17.7243 14.0659 18.4436 13.8645 18.2684C13.7828 18.1974 13.8308 17.9898 13.9785 17.6972C13.8582 17.7081 13.7371 17.7081 13.6168 17.6973C13.7645 17.9899 13.8124 18.1974 13.7307 18.2684C13.5294 18.4436 12.617 17.7243 11.693 16.6619C10.9895 15.8531 10.482 15.0786 10.3687 14.6777C10.2493 14.4217 10.1827 14.1363 10.1827 13.8352C10.1827 12.7328 11.0763 11.8392 12.1787 11.8392C12.8468 11.8392 13.4382 12.1674 13.8005 12.6714C14.1628 12.1674 14.7542 11.8392 15.4223 11.8392C16.5247 11.8392 17.4183 12.7328 17.4183 13.8352Z" fill="black"/>
</svg>
